%YAML 1.1
%TAG !u! tag:unity3d.com,2011:
--- !u!43 &4300000
Mesh:
  m_ObjectHideFlags: 0
  m_CorrespondingSourceObject: {fileID: 0}
  m_PrefabInstance: {fileID: 0}
  m_PrefabAsset: {fileID: 0}
  m_Name: topPlate
  serializedVersion: 11
  m_SubMeshes:
  - serializedVersion: 2
    firstByte: 0
    indexCount: 24
    topology: 0
    baseVertex: 0
    firstVertex: 0
    vertexCount: 10
    localAABB:
      m_Center: {x: 0.000008669449, y: 0.0000030345982, z: 0}
      m_Extent: {x: 0.0038312543, y: 0.0002961046, z: 0.0037583923}
  m_Shapes:
    vertices: []
    shapes: []
    channels: []
    fullWeights: []
  m_BindPose: []
  m_BoneNameHashes: 
  m_RootBoneNameHash: 0
  m_BonesAABB: []
  m_VariableBoneCountWeights:
    m_Data: 
  m_MeshCompression: 0
  m_IsReadable: 1
  m_KeepVertices: 1
  m_KeepIndices: 1
  m_IndexFormat: 0
  m_IndexBuffer: 000001000200000002000300020004000300020005000400040005000600040006000700060008000700060009000800
  m_VertexData:
    serializedVersion: 3
    m_VertexCount: 10
    m_Channels:
    - stream: 0
      offset: 0
      format: 0
      dimension: 3
    - stream: 0
      offset: 12
      format: 0
      dimension: 3
    - stream: 0
      offset: 24
      format: 0
      dimension: 4
    - stream: 0
      offset: 0
      format: 0
      dimension: 0
    - stream: 0
      offset: 40
      format: 0
      dimension: 2
    - stream: 0
      offset: 0
      format: 0
      dimension: 0
    - stream: 0
      offset: 0
      format: 0
      dimension: 0
    - stream: 0
      offset: 0
      format: 0
      dimension: 0
    - stream: 0
      offset: 0
      format: 0
      dimension: 0
    - stream: 0
      offset: 0
      format: 0
      dimension: 0
    - stream: 0
      offset: 0
      format: 0
      dimension: 0
    - stream: 0
      offset: 0
      format: 0
      dimension: 0
    - stream: 0
      offset: 0
      format: 0
      dimension: 0
    - stream: 0
      offset: 0
      format: 0
      dimension: 0
    m_DataSize: 480
    _typelessdata: 55847abb31a799b95c4f763bff364bbad9227a3fbce9593e6f5042bc30e859be3d1e7a3f000080bf633d7c3f92306d3f797d793b31a799b95c4f763b40374bbad9227a3fbde9593e6f5042bc30e859be3d1e7a3f000080bf633d7c3f24f4c53de6d87a3b2699a4388f82063b40684dba73e47c3f5a111f3eeaf711bc8e111fbed3e17c3f000080bf6da4603f24f4c53de92879bb2699a4388f82063b3e634dba2ede7c3f4cb01f3e9c8412bc7eb01fbe8bdb7c3f000080bf6da4603f92306d3f945a78bbc9d59c390000000001e54fbafcff7f3fa6760f3900000000000000000000803f000080bf3a54403f92306d3f3ba77b3bc7d59c390000000001e54fbafcff7f3f7562243900000000000000000000803f000080bf3a54403f24f4c53d75d97a3b1cd6a538f60800bb01634dbaf2e37c3f271e1fbe8f400f3c631e1f3e6ce17c3f000080bfe887213f24f4c53d592879bb1cd6a538f60800bb425e4dbab1de7c3f8aa31fbed0b50f3cc0a31f3e25dc7c3f000080bfe887213f92306d3f55847abb31a799b95c4f76bb40a44bbaa9b97a3f1fcc4ebebd69383c07cb4e3e80b57a3f000080bf5a70043f92306d3f797d793b31a799b95c4f76bb01a44bbaa9b97a3f1ecc4ebe7068383c05cb4e3e80b57a3f000080bf5a70043f24f4c53d
  m_CompressedMesh:
    m_Vertices:
      m_NumItems: 0
      m_Range: 0
      m_Start: 0
      m_Data: 
      m_BitSize: 0
    m_UV:
      m_NumItems: 0
      m_Range: 0
      m_Start: 0
      m_Data: 
      m_BitSize: 0
    m_Normals:
      m_NumItems: 0
      m_Range: 0
      m_Start: 0
      m_Data: 
      m_BitSize: 0
    m_Tangents:
      m_NumItems: 0
      m_Range: 0
      m_Start: 0
      m_Data: 
      m_BitSize: 0
    m_Weights:
      m_NumItems: 0
      m_Data: 
      m_BitSize: 0
    m_NormalSigns:
      m_NumItems: 0
      m_Data: 
      m_BitSize: 0
    m_TangentSigns:
      m_NumItems: 0
      m_Data: 
      m_BitSize: 0
    m_FloatColors:
      m_NumItems: 0
      m_Range: 0
      m_Start: 0
      m_Data: 
      m_BitSize: 0
    m_BoneIndices:
      m_NumItems: 0
      m_Data: 
      m_BitSize: 0
    m_Triangles:
      m_NumItems: 0
      m_Data: 
      m_BitSize: 0
    m_UVInfo: 0
  m_LocalAABB:
    m_Center: {x: 0.000008669449, y: 0.0000030345982, z: 0}
    m_Extent: {x: 0.0038312543, y: 0.0002961046, z: 0.0037583923}
  m_MeshUsageFlags: 0
  m_CookingOptions: 30
  m_BakedConvexCollisionMesh: 
  m_BakedTriangleCollisionMesh: 
  m_MeshMetrics[0]: 1
  m_MeshMetrics[1]: 1
  m_MeshOptimizationFlags: -1
  m_StreamData:
    serializedVersion: 2
    offset: 0
    size: 0
    path: 
